<mxfile host="app.diagrams.net" modified="2024-03-24T19:17:10.565Z" agent="Mozilla/5.0 (X11; Linux x86_64) AppleWebKit/537.36 (KHTML, like Gecko) Chrome/122.0.0.0 Safari/537.36" etag="caBddnRD6CfuqwAxfv35" version="24.1.0" type="device">
  <diagram name="Pagina-1" id="yANQRM04KbHzsSvwyNjo">
    <mxGraphModel dx="862" dy="1649" grid="1" gridSize="10" guides="1" tooltips="1" connect="1" arrows="1" fold="1" page="1" pageScale="1" pageWidth="827" pageHeight="1169" math="0" shadow="0">
      <root>
        <mxCell id="0" />
        <mxCell id="1" parent="0" />
        <mxCell id="cD2oe-k7UweuZnAWqWtk-1" value="" style="shape=table;startSize=0;container=1;collapsible=0;childLayout=tableLayout;strokeWidth=1;strokeColor=#FFC7F2;rounded=0;shadow=0;swimlaneFillColor=none;" vertex="1" parent="1">
          <mxGeometry width="280" height="280" as="geometry" />
        </mxCell>
        <mxCell id="cD2oe-k7UweuZnAWqWtk-2" value="" style="shape=tableRow;horizontal=0;startSize=0;swimlaneHead=0;swimlaneBody=0;strokeColor=inherit;top=0;left=0;bottom=0;right=0;collapsible=0;dropTarget=0;fillColor=none;points=[[0,0.5],[1,0.5]];portConstraint=eastwest;" vertex="1" parent="cD2oe-k7UweuZnAWqWtk-1">
          <mxGeometry width="280" height="40" as="geometry" />
        </mxCell>
        <mxCell id="cD2oe-k7UweuZnAWqWtk-3" value="" style="shape=partialRectangle;html=1;whiteSpace=wrap;connectable=0;strokeColor=inherit;overflow=hidden;fillColor=#CCE5FF;top=1;left=1;bottom=1;right=1;pointerEvents=1;align=center;strokeWidth=1;perimeterSpacing=0;" vertex="1" parent="cD2oe-k7UweuZnAWqWtk-2">
          <mxGeometry width="40" height="40" as="geometry">
            <mxRectangle width="40" height="40" as="alternateBounds" />
          </mxGeometry>
        </mxCell>
        <mxCell id="cD2oe-k7UweuZnAWqWtk-4" value="" style="shape=partialRectangle;html=1;whiteSpace=wrap;connectable=0;overflow=hidden;top=1;left=1;bottom=1;right=1;pointerEvents=1;shadow=0;fillColor=#CCE5FF;strokeColor=inherit;" vertex="1" parent="cD2oe-k7UweuZnAWqWtk-2">
          <mxGeometry x="40" width="40" height="40" as="geometry">
            <mxRectangle width="40" height="40" as="alternateBounds" />
          </mxGeometry>
        </mxCell>
        <mxCell id="cD2oe-k7UweuZnAWqWtk-5" value="" style="shape=partialRectangle;html=1;whiteSpace=wrap;connectable=0;strokeColor=inherit;overflow=hidden;fillColor=#CCE5FF;top=1;left=1;bottom=1;right=1;pointerEvents=1;shadow=0;align=center;verticalAlign=middle;fontFamily=Helvetica;fontSize=12;fontColor=default;" vertex="1" parent="cD2oe-k7UweuZnAWqWtk-2">
          <mxGeometry x="80" width="40" height="40" as="geometry">
            <mxRectangle width="40" height="40" as="alternateBounds" />
          </mxGeometry>
        </mxCell>
        <mxCell id="cD2oe-k7UweuZnAWqWtk-6" value="" style="shape=partialRectangle;html=1;whiteSpace=wrap;connectable=0;strokeColor=inherit;overflow=hidden;fillColor=#CCE5FF;top=1;left=1;bottom=1;right=1;pointerEvents=1;" vertex="1" parent="cD2oe-k7UweuZnAWqWtk-2">
          <mxGeometry x="120" width="40" height="40" as="geometry">
            <mxRectangle width="40" height="40" as="alternateBounds" />
          </mxGeometry>
        </mxCell>
        <mxCell id="cD2oe-k7UweuZnAWqWtk-7" value="" style="shape=partialRectangle;html=1;whiteSpace=wrap;connectable=0;strokeColor=inherit;overflow=hidden;fillColor=#CCE5FF;top=1;left=1;bottom=1;right=1;pointerEvents=1;" vertex="1" parent="cD2oe-k7UweuZnAWqWtk-2">
          <mxGeometry x="160" width="40" height="40" as="geometry">
            <mxRectangle width="40" height="40" as="alternateBounds" />
          </mxGeometry>
        </mxCell>
        <mxCell id="cD2oe-k7UweuZnAWqWtk-205" style="shape=partialRectangle;html=1;whiteSpace=wrap;connectable=0;strokeColor=inherit;overflow=hidden;fillColor=#CCE5FF;top=1;left=1;bottom=1;right=1;pointerEvents=1;" vertex="1" parent="cD2oe-k7UweuZnAWqWtk-2">
          <mxGeometry x="200" width="40" height="40" as="geometry">
            <mxRectangle width="40" height="40" as="alternateBounds" />
          </mxGeometry>
        </mxCell>
        <mxCell id="cD2oe-k7UweuZnAWqWtk-212" style="shape=partialRectangle;html=1;whiteSpace=wrap;connectable=0;strokeColor=inherit;overflow=hidden;fillColor=#CCE5FF;top=1;left=1;bottom=1;right=1;pointerEvents=1;" vertex="1" parent="cD2oe-k7UweuZnAWqWtk-2">
          <mxGeometry x="240" width="40" height="40" as="geometry">
            <mxRectangle width="40" height="40" as="alternateBounds" />
          </mxGeometry>
        </mxCell>
        <mxCell id="cD2oe-k7UweuZnAWqWtk-11" value="" style="shape=tableRow;horizontal=0;startSize=0;swimlaneHead=0;swimlaneBody=0;strokeColor=inherit;top=0;left=0;bottom=0;right=0;collapsible=0;dropTarget=0;fillColor=none;points=[[0,0.5],[1,0.5]];portConstraint=eastwest;" vertex="1" parent="cD2oe-k7UweuZnAWqWtk-1">
          <mxGeometry y="40" width="280" height="40" as="geometry" />
        </mxCell>
        <mxCell id="cD2oe-k7UweuZnAWqWtk-12" value="" style="shape=partialRectangle;html=1;whiteSpace=wrap;connectable=0;strokeColor=inherit;overflow=hidden;fillColor=#CCE5FF;top=1;left=1;bottom=1;right=1;pointerEvents=1;" vertex="1" parent="cD2oe-k7UweuZnAWqWtk-11">
          <mxGeometry width="40" height="40" as="geometry">
            <mxRectangle width="40" height="40" as="alternateBounds" />
          </mxGeometry>
        </mxCell>
        <mxCell id="cD2oe-k7UweuZnAWqWtk-13" value="" style="shape=partialRectangle;html=1;whiteSpace=wrap;connectable=0;strokeColor=inherit;overflow=hidden;fillColor=#42B4FF;top=1;left=1;bottom=1;right=1;pointerEvents=1;" vertex="1" parent="cD2oe-k7UweuZnAWqWtk-11">
          <mxGeometry x="40" width="40" height="40" as="geometry">
            <mxRectangle width="40" height="40" as="alternateBounds" />
          </mxGeometry>
        </mxCell>
        <mxCell id="cD2oe-k7UweuZnAWqWtk-14" value="" style="shape=partialRectangle;html=1;whiteSpace=wrap;connectable=0;strokeColor=inherit;overflow=hidden;fillColor=#42B4FF;top=1;left=1;bottom=1;right=1;pointerEvents=1;" vertex="1" parent="cD2oe-k7UweuZnAWqWtk-11">
          <mxGeometry x="80" width="40" height="40" as="geometry">
            <mxRectangle width="40" height="40" as="alternateBounds" />
          </mxGeometry>
        </mxCell>
        <mxCell id="cD2oe-k7UweuZnAWqWtk-15" value="" style="shape=partialRectangle;html=1;whiteSpace=wrap;connectable=0;strokeColor=inherit;overflow=hidden;fillColor=#42B4FF;top=1;left=1;bottom=1;right=1;pointerEvents=1;" vertex="1" parent="cD2oe-k7UweuZnAWqWtk-11">
          <mxGeometry x="120" width="40" height="40" as="geometry">
            <mxRectangle width="40" height="40" as="alternateBounds" />
          </mxGeometry>
        </mxCell>
        <mxCell id="cD2oe-k7UweuZnAWqWtk-16" value="" style="shape=partialRectangle;html=1;whiteSpace=wrap;connectable=0;strokeColor=inherit;overflow=hidden;fillColor=#42B4FF;top=1;left=1;bottom=1;right=1;pointerEvents=1;" vertex="1" parent="cD2oe-k7UweuZnAWqWtk-11">
          <mxGeometry x="160" width="40" height="40" as="geometry">
            <mxRectangle width="40" height="40" as="alternateBounds" />
          </mxGeometry>
        </mxCell>
        <mxCell id="cD2oe-k7UweuZnAWqWtk-206" style="shape=partialRectangle;html=1;whiteSpace=wrap;connectable=0;strokeColor=inherit;overflow=hidden;fillColor=#42B4FF;top=1;left=1;bottom=1;right=1;pointerEvents=1;" vertex="1" parent="cD2oe-k7UweuZnAWqWtk-11">
          <mxGeometry x="200" width="40" height="40" as="geometry">
            <mxRectangle width="40" height="40" as="alternateBounds" />
          </mxGeometry>
        </mxCell>
        <mxCell id="cD2oe-k7UweuZnAWqWtk-213" style="shape=partialRectangle;html=1;whiteSpace=wrap;connectable=0;strokeColor=inherit;overflow=hidden;fillColor=#42B4FF;top=1;left=1;bottom=1;right=1;pointerEvents=1;" vertex="1" parent="cD2oe-k7UweuZnAWqWtk-11">
          <mxGeometry x="240" width="40" height="40" as="geometry">
            <mxRectangle width="40" height="40" as="alternateBounds" />
          </mxGeometry>
        </mxCell>
        <mxCell id="cD2oe-k7UweuZnAWqWtk-193" value="" style="shape=tableRow;horizontal=0;startSize=0;swimlaneHead=0;swimlaneBody=0;strokeColor=inherit;top=0;left=0;bottom=0;right=0;collapsible=0;dropTarget=0;fillColor=none;points=[[0,0.5],[1,0.5]];portConstraint=eastwest;" vertex="1" parent="cD2oe-k7UweuZnAWqWtk-1">
          <mxGeometry y="80" width="280" height="40" as="geometry" />
        </mxCell>
        <mxCell id="cD2oe-k7UweuZnAWqWtk-194" value="" style="shape=partialRectangle;html=1;whiteSpace=wrap;connectable=0;strokeColor=inherit;overflow=hidden;fillColor=#CCE5FF;top=1;left=1;bottom=1;right=1;pointerEvents=1;" vertex="1" parent="cD2oe-k7UweuZnAWqWtk-193">
          <mxGeometry width="40" height="40" as="geometry">
            <mxRectangle width="40" height="40" as="alternateBounds" />
          </mxGeometry>
        </mxCell>
        <mxCell id="cD2oe-k7UweuZnAWqWtk-195" value="" style="shape=partialRectangle;html=1;whiteSpace=wrap;connectable=0;strokeColor=inherit;overflow=hidden;fillColor=#42B4FF;top=1;left=1;bottom=1;right=1;pointerEvents=1;" vertex="1" parent="cD2oe-k7UweuZnAWqWtk-193">
          <mxGeometry x="40" width="40" height="40" as="geometry">
            <mxRectangle width="40" height="40" as="alternateBounds" />
          </mxGeometry>
        </mxCell>
        <mxCell id="cD2oe-k7UweuZnAWqWtk-196" value="" style="shape=partialRectangle;html=1;whiteSpace=wrap;connectable=0;strokeColor=inherit;overflow=hidden;fillColor=none;top=0;left=0;bottom=0;right=0;pointerEvents=1;" vertex="1" parent="cD2oe-k7UweuZnAWqWtk-193">
          <mxGeometry x="80" width="40" height="40" as="geometry">
            <mxRectangle width="40" height="40" as="alternateBounds" />
          </mxGeometry>
        </mxCell>
        <mxCell id="cD2oe-k7UweuZnAWqWtk-197" value="" style="shape=partialRectangle;html=1;whiteSpace=wrap;connectable=0;strokeColor=inherit;overflow=hidden;fillColor=none;top=0;left=0;bottom=0;right=0;pointerEvents=1;" vertex="1" parent="cD2oe-k7UweuZnAWqWtk-193">
          <mxGeometry x="120" width="40" height="40" as="geometry">
            <mxRectangle width="40" height="40" as="alternateBounds" />
          </mxGeometry>
        </mxCell>
        <mxCell id="cD2oe-k7UweuZnAWqWtk-198" value="" style="shape=partialRectangle;html=1;whiteSpace=wrap;connectable=0;strokeColor=inherit;overflow=hidden;fillColor=none;top=0;left=0;bottom=0;right=0;pointerEvents=1;" vertex="1" parent="cD2oe-k7UweuZnAWqWtk-193">
          <mxGeometry x="160" width="40" height="40" as="geometry">
            <mxRectangle width="40" height="40" as="alternateBounds" />
          </mxGeometry>
        </mxCell>
        <mxCell id="cD2oe-k7UweuZnAWqWtk-207" style="shape=partialRectangle;html=1;whiteSpace=wrap;connectable=0;strokeColor=inherit;overflow=hidden;fillColor=none;top=0;left=0;bottom=0;right=0;pointerEvents=1;" vertex="1" parent="cD2oe-k7UweuZnAWqWtk-193">
          <mxGeometry x="200" width="40" height="40" as="geometry">
            <mxRectangle width="40" height="40" as="alternateBounds" />
          </mxGeometry>
        </mxCell>
        <mxCell id="cD2oe-k7UweuZnAWqWtk-214" style="shape=partialRectangle;html=1;whiteSpace=wrap;connectable=0;strokeColor=inherit;overflow=hidden;fillColor=none;top=0;left=0;bottom=0;right=0;pointerEvents=1;" vertex="1" parent="cD2oe-k7UweuZnAWqWtk-193">
          <mxGeometry x="240" width="40" height="40" as="geometry">
            <mxRectangle width="40" height="40" as="alternateBounds" />
          </mxGeometry>
        </mxCell>
        <mxCell id="cD2oe-k7UweuZnAWqWtk-187" value="" style="shape=tableRow;horizontal=0;startSize=0;swimlaneHead=0;swimlaneBody=0;strokeColor=inherit;top=0;left=0;bottom=0;right=0;collapsible=0;dropTarget=0;fillColor=none;points=[[0,0.5],[1,0.5]];portConstraint=eastwest;" vertex="1" parent="cD2oe-k7UweuZnAWqWtk-1">
          <mxGeometry y="120" width="280" height="40" as="geometry" />
        </mxCell>
        <mxCell id="cD2oe-k7UweuZnAWqWtk-188" value="" style="shape=partialRectangle;html=1;whiteSpace=wrap;connectable=0;strokeColor=inherit;overflow=hidden;fillColor=#CCE5FF;top=1;left=1;bottom=1;right=1;pointerEvents=1;" vertex="1" parent="cD2oe-k7UweuZnAWqWtk-187">
          <mxGeometry width="40" height="40" as="geometry">
            <mxRectangle width="40" height="40" as="alternateBounds" />
          </mxGeometry>
        </mxCell>
        <mxCell id="cD2oe-k7UweuZnAWqWtk-189" value="" style="shape=partialRectangle;html=1;whiteSpace=wrap;connectable=0;strokeColor=inherit;overflow=hidden;fillColor=#42B4FF;top=1;left=1;bottom=1;right=1;pointerEvents=1;" vertex="1" parent="cD2oe-k7UweuZnAWqWtk-187">
          <mxGeometry x="40" width="40" height="40" as="geometry">
            <mxRectangle width="40" height="40" as="alternateBounds" />
          </mxGeometry>
        </mxCell>
        <mxCell id="cD2oe-k7UweuZnAWqWtk-190" value="" style="shape=partialRectangle;html=1;whiteSpace=wrap;connectable=0;strokeColor=inherit;overflow=hidden;fillColor=none;top=0;left=0;bottom=0;right=0;pointerEvents=1;" vertex="1" parent="cD2oe-k7UweuZnAWqWtk-187">
          <mxGeometry x="80" width="40" height="40" as="geometry">
            <mxRectangle width="40" height="40" as="alternateBounds" />
          </mxGeometry>
        </mxCell>
        <mxCell id="cD2oe-k7UweuZnAWqWtk-191" value="" style="shape=partialRectangle;html=1;whiteSpace=wrap;connectable=0;strokeColor=inherit;overflow=hidden;fillColor=none;top=0;left=0;bottom=0;right=0;pointerEvents=1;" vertex="1" parent="cD2oe-k7UweuZnAWqWtk-187">
          <mxGeometry x="120" width="40" height="40" as="geometry">
            <mxRectangle width="40" height="40" as="alternateBounds" />
          </mxGeometry>
        </mxCell>
        <mxCell id="cD2oe-k7UweuZnAWqWtk-192" value="" style="shape=partialRectangle;html=1;whiteSpace=wrap;connectable=0;strokeColor=inherit;overflow=hidden;fillColor=none;top=0;left=0;bottom=0;right=0;pointerEvents=1;" vertex="1" parent="cD2oe-k7UweuZnAWqWtk-187">
          <mxGeometry x="160" width="40" height="40" as="geometry">
            <mxRectangle width="40" height="40" as="alternateBounds" />
          </mxGeometry>
        </mxCell>
        <mxCell id="cD2oe-k7UweuZnAWqWtk-208" style="shape=partialRectangle;html=1;whiteSpace=wrap;connectable=0;strokeColor=inherit;overflow=hidden;fillColor=none;top=0;left=0;bottom=0;right=0;pointerEvents=1;" vertex="1" parent="cD2oe-k7UweuZnAWqWtk-187">
          <mxGeometry x="200" width="40" height="40" as="geometry">
            <mxRectangle width="40" height="40" as="alternateBounds" />
          </mxGeometry>
        </mxCell>
        <mxCell id="cD2oe-k7UweuZnAWqWtk-215" style="shape=partialRectangle;html=1;whiteSpace=wrap;connectable=0;strokeColor=inherit;overflow=hidden;fillColor=none;top=0;left=0;bottom=0;right=0;pointerEvents=1;" vertex="1" parent="cD2oe-k7UweuZnAWqWtk-187">
          <mxGeometry x="240" width="40" height="40" as="geometry">
            <mxRectangle width="40" height="40" as="alternateBounds" />
          </mxGeometry>
        </mxCell>
        <mxCell id="cD2oe-k7UweuZnAWqWtk-20" value="" style="shape=tableRow;horizontal=0;startSize=0;swimlaneHead=0;swimlaneBody=0;strokeColor=inherit;top=0;left=0;bottom=0;right=0;collapsible=0;dropTarget=0;fillColor=none;points=[[0,0.5],[1,0.5]];portConstraint=eastwest;" vertex="1" parent="cD2oe-k7UweuZnAWqWtk-1">
          <mxGeometry y="160" width="280" height="40" as="geometry" />
        </mxCell>
        <mxCell id="cD2oe-k7UweuZnAWqWtk-21" value="" style="shape=partialRectangle;html=1;whiteSpace=wrap;connectable=0;strokeColor=inherit;overflow=hidden;fillColor=#CCE5FF;top=1;left=1;bottom=1;right=1;pointerEvents=1;" vertex="1" parent="cD2oe-k7UweuZnAWqWtk-20">
          <mxGeometry width="40" height="40" as="geometry">
            <mxRectangle width="40" height="40" as="alternateBounds" />
          </mxGeometry>
        </mxCell>
        <mxCell id="cD2oe-k7UweuZnAWqWtk-22" value="" style="shape=partialRectangle;html=1;whiteSpace=wrap;connectable=0;strokeColor=inherit;overflow=hidden;fillColor=#42B4FF;top=1;left=1;bottom=1;right=1;pointerEvents=1;" vertex="1" parent="cD2oe-k7UweuZnAWqWtk-20">
          <mxGeometry x="40" width="40" height="40" as="geometry">
            <mxRectangle width="40" height="40" as="alternateBounds" />
          </mxGeometry>
        </mxCell>
        <mxCell id="cD2oe-k7UweuZnAWqWtk-23" value="" style="shape=partialRectangle;html=1;whiteSpace=wrap;connectable=0;strokeColor=inherit;overflow=hidden;fillColor=none;top=0;left=0;bottom=0;right=0;pointerEvents=1;" vertex="1" parent="cD2oe-k7UweuZnAWqWtk-20">
          <mxGeometry x="80" width="40" height="40" as="geometry">
            <mxRectangle width="40" height="40" as="alternateBounds" />
          </mxGeometry>
        </mxCell>
        <mxCell id="cD2oe-k7UweuZnAWqWtk-24" value="" style="shape=partialRectangle;html=1;whiteSpace=wrap;connectable=0;strokeColor=inherit;overflow=hidden;fillColor=none;top=0;left=0;bottom=0;right=0;pointerEvents=1;" vertex="1" parent="cD2oe-k7UweuZnAWqWtk-20">
          <mxGeometry x="120" width="40" height="40" as="geometry">
            <mxRectangle width="40" height="40" as="alternateBounds" />
          </mxGeometry>
        </mxCell>
        <mxCell id="cD2oe-k7UweuZnAWqWtk-25" value="" style="shape=partialRectangle;html=1;whiteSpace=wrap;connectable=0;strokeColor=inherit;overflow=hidden;fillColor=none;top=0;left=0;bottom=0;right=0;pointerEvents=1;" vertex="1" parent="cD2oe-k7UweuZnAWqWtk-20">
          <mxGeometry x="160" width="40" height="40" as="geometry">
            <mxRectangle width="40" height="40" as="alternateBounds" />
          </mxGeometry>
        </mxCell>
        <mxCell id="cD2oe-k7UweuZnAWqWtk-209" style="shape=partialRectangle;html=1;whiteSpace=wrap;connectable=0;strokeColor=inherit;overflow=hidden;fillColor=none;top=0;left=0;bottom=0;right=0;pointerEvents=1;" vertex="1" parent="cD2oe-k7UweuZnAWqWtk-20">
          <mxGeometry x="200" width="40" height="40" as="geometry">
            <mxRectangle width="40" height="40" as="alternateBounds" />
          </mxGeometry>
        </mxCell>
        <mxCell id="cD2oe-k7UweuZnAWqWtk-216" style="shape=partialRectangle;html=1;whiteSpace=wrap;connectable=0;strokeColor=inherit;overflow=hidden;fillColor=none;top=0;left=0;bottom=0;right=0;pointerEvents=1;" vertex="1" parent="cD2oe-k7UweuZnAWqWtk-20">
          <mxGeometry x="240" width="40" height="40" as="geometry">
            <mxRectangle width="40" height="40" as="alternateBounds" />
          </mxGeometry>
        </mxCell>
        <mxCell id="cD2oe-k7UweuZnAWqWtk-29" value="" style="shape=tableRow;horizontal=0;startSize=0;swimlaneHead=0;swimlaneBody=0;strokeColor=inherit;top=0;left=0;bottom=0;right=0;collapsible=0;dropTarget=0;fillColor=none;points=[[0,0.5],[1,0.5]];portConstraint=eastwest;" vertex="1" parent="cD2oe-k7UweuZnAWqWtk-1">
          <mxGeometry y="200" width="280" height="40" as="geometry" />
        </mxCell>
        <mxCell id="cD2oe-k7UweuZnAWqWtk-30" value="" style="shape=partialRectangle;html=1;whiteSpace=wrap;connectable=0;strokeColor=inherit;overflow=hidden;fillColor=#CCE5FF;top=1;left=1;bottom=1;right=1;pointerEvents=1;" vertex="1" parent="cD2oe-k7UweuZnAWqWtk-29">
          <mxGeometry width="40" height="40" as="geometry">
            <mxRectangle width="40" height="40" as="alternateBounds" />
          </mxGeometry>
        </mxCell>
        <mxCell id="cD2oe-k7UweuZnAWqWtk-31" value="" style="shape=partialRectangle;html=1;whiteSpace=wrap;connectable=0;strokeColor=inherit;overflow=hidden;fillColor=#42B4FF;top=1;left=1;bottom=1;right=1;pointerEvents=1;" vertex="1" parent="cD2oe-k7UweuZnAWqWtk-29">
          <mxGeometry x="40" width="40" height="40" as="geometry">
            <mxRectangle width="40" height="40" as="alternateBounds" />
          </mxGeometry>
        </mxCell>
        <mxCell id="cD2oe-k7UweuZnAWqWtk-32" value="" style="shape=partialRectangle;html=1;whiteSpace=wrap;connectable=0;strokeColor=inherit;overflow=hidden;fillColor=none;top=0;left=0;bottom=0;right=0;pointerEvents=1;" vertex="1" parent="cD2oe-k7UweuZnAWqWtk-29">
          <mxGeometry x="80" width="40" height="40" as="geometry">
            <mxRectangle width="40" height="40" as="alternateBounds" />
          </mxGeometry>
        </mxCell>
        <mxCell id="cD2oe-k7UweuZnAWqWtk-33" value="" style="shape=partialRectangle;html=1;whiteSpace=wrap;connectable=0;strokeColor=inherit;overflow=hidden;fillColor=none;top=0;left=0;bottom=0;right=0;pointerEvents=1;" vertex="1" parent="cD2oe-k7UweuZnAWqWtk-29">
          <mxGeometry x="120" width="40" height="40" as="geometry">
            <mxRectangle width="40" height="40" as="alternateBounds" />
          </mxGeometry>
        </mxCell>
        <mxCell id="cD2oe-k7UweuZnAWqWtk-34" value="" style="shape=partialRectangle;html=1;whiteSpace=wrap;connectable=0;strokeColor=inherit;overflow=hidden;fillColor=none;top=0;left=0;bottom=0;right=0;pointerEvents=1;" vertex="1" parent="cD2oe-k7UweuZnAWqWtk-29">
          <mxGeometry x="160" width="40" height="40" as="geometry">
            <mxRectangle width="40" height="40" as="alternateBounds" />
          </mxGeometry>
        </mxCell>
        <mxCell id="cD2oe-k7UweuZnAWqWtk-210" style="shape=partialRectangle;html=1;whiteSpace=wrap;connectable=0;strokeColor=inherit;overflow=hidden;fillColor=none;top=0;left=0;bottom=0;right=0;pointerEvents=1;" vertex="1" parent="cD2oe-k7UweuZnAWqWtk-29">
          <mxGeometry x="200" width="40" height="40" as="geometry">
            <mxRectangle width="40" height="40" as="alternateBounds" />
          </mxGeometry>
        </mxCell>
        <mxCell id="cD2oe-k7UweuZnAWqWtk-217" style="shape=partialRectangle;html=1;whiteSpace=wrap;connectable=0;strokeColor=inherit;overflow=hidden;fillColor=none;top=0;left=0;bottom=0;right=0;pointerEvents=1;" vertex="1" parent="cD2oe-k7UweuZnAWqWtk-29">
          <mxGeometry x="240" width="40" height="40" as="geometry">
            <mxRectangle width="40" height="40" as="alternateBounds" />
          </mxGeometry>
        </mxCell>
        <mxCell id="cD2oe-k7UweuZnAWqWtk-38" value="" style="shape=tableRow;horizontal=0;startSize=0;swimlaneHead=0;swimlaneBody=0;strokeColor=inherit;top=0;left=0;bottom=0;right=0;collapsible=0;dropTarget=0;fillColor=none;points=[[0,0.5],[1,0.5]];portConstraint=eastwest;" vertex="1" parent="cD2oe-k7UweuZnAWqWtk-1">
          <mxGeometry y="240" width="280" height="40" as="geometry" />
        </mxCell>
        <mxCell id="cD2oe-k7UweuZnAWqWtk-39" value="" style="shape=partialRectangle;html=1;whiteSpace=wrap;connectable=0;strokeColor=inherit;overflow=hidden;fillColor=#CCE5FF;top=1;left=1;bottom=1;right=1;pointerEvents=1;" vertex="1" parent="cD2oe-k7UweuZnAWqWtk-38">
          <mxGeometry width="40" height="40" as="geometry">
            <mxRectangle width="40" height="40" as="alternateBounds" />
          </mxGeometry>
        </mxCell>
        <mxCell id="cD2oe-k7UweuZnAWqWtk-40" value="" style="shape=partialRectangle;html=1;whiteSpace=wrap;connectable=0;strokeColor=inherit;overflow=hidden;fillColor=#42B4FF;top=1;left=1;bottom=1;right=1;pointerEvents=1;" vertex="1" parent="cD2oe-k7UweuZnAWqWtk-38">
          <mxGeometry x="40" width="40" height="40" as="geometry">
            <mxRectangle width="40" height="40" as="alternateBounds" />
          </mxGeometry>
        </mxCell>
        <mxCell id="cD2oe-k7UweuZnAWqWtk-41" value="" style="shape=partialRectangle;html=1;whiteSpace=wrap;connectable=0;strokeColor=inherit;overflow=hidden;fillColor=none;top=0;left=0;bottom=0;right=0;pointerEvents=1;" vertex="1" parent="cD2oe-k7UweuZnAWqWtk-38">
          <mxGeometry x="80" width="40" height="40" as="geometry">
            <mxRectangle width="40" height="40" as="alternateBounds" />
          </mxGeometry>
        </mxCell>
        <mxCell id="cD2oe-k7UweuZnAWqWtk-42" value="" style="shape=partialRectangle;html=1;whiteSpace=wrap;connectable=0;strokeColor=inherit;overflow=hidden;fillColor=none;top=0;left=0;bottom=0;right=0;pointerEvents=1;" vertex="1" parent="cD2oe-k7UweuZnAWqWtk-38">
          <mxGeometry x="120" width="40" height="40" as="geometry">
            <mxRectangle width="40" height="40" as="alternateBounds" />
          </mxGeometry>
        </mxCell>
        <mxCell id="cD2oe-k7UweuZnAWqWtk-43" value="" style="shape=partialRectangle;html=1;whiteSpace=wrap;connectable=0;strokeColor=inherit;overflow=hidden;fillColor=none;top=0;left=0;bottom=0;right=0;pointerEvents=1;" vertex="1" parent="cD2oe-k7UweuZnAWqWtk-38">
          <mxGeometry x="160" width="40" height="40" as="geometry">
            <mxRectangle width="40" height="40" as="alternateBounds" />
          </mxGeometry>
        </mxCell>
        <mxCell id="cD2oe-k7UweuZnAWqWtk-211" style="shape=partialRectangle;html=1;whiteSpace=wrap;connectable=0;strokeColor=inherit;overflow=hidden;fillColor=none;top=0;left=0;bottom=0;right=0;pointerEvents=1;" vertex="1" parent="cD2oe-k7UweuZnAWqWtk-38">
          <mxGeometry x="200" width="40" height="40" as="geometry">
            <mxRectangle width="40" height="40" as="alternateBounds" />
          </mxGeometry>
        </mxCell>
        <mxCell id="cD2oe-k7UweuZnAWqWtk-218" style="shape=partialRectangle;html=1;whiteSpace=wrap;connectable=0;strokeColor=inherit;overflow=hidden;fillColor=none;top=0;left=0;bottom=0;right=0;pointerEvents=1;" vertex="1" parent="cD2oe-k7UweuZnAWqWtk-38">
          <mxGeometry x="240" width="40" height="40" as="geometry">
            <mxRectangle width="40" height="40" as="alternateBounds" />
          </mxGeometry>
        </mxCell>
        <mxCell id="cD2oe-k7UweuZnAWqWtk-237" value="" style="shape=table;startSize=0;container=1;collapsible=0;childLayout=tableLayout;swimlaneFillColor=none;fillColor=#42B4FF;perimeterSpacing=0;strokeColor=#EA772A;strokeWidth=2;fontColor=#EA772A;fillStyle=auto;pointerEvents=1;align=center;verticalAlign=middle;fontFamily=Helvetica;fontSize=16;fontStyle=1;labelBorderColor=none;gradientColor=none;" vertex="1" parent="1">
          <mxGeometry x="80" y="80" width="120" height="120" as="geometry" />
        </mxCell>
        <mxCell id="cD2oe-k7UweuZnAWqWtk-238" value="" style="shape=tableRow;horizontal=0;startSize=0;swimlaneHead=0;swimlaneBody=0;strokeColor=inherit;top=0;left=0;bottom=0;right=0;collapsible=0;dropTarget=0;fillColor=#42B4FF;points=[[0,0.5],[1,0.5]];portConstraint=eastwest;fillStyle=auto;pointerEvents=1;strokeWidth=3;align=center;verticalAlign=middle;fontFamily=Helvetica;fontSize=16;fontColor=#EA772A;fontStyle=1;labelBorderColor=none;gradientColor=none;" vertex="1" parent="cD2oe-k7UweuZnAWqWtk-237">
          <mxGeometry width="120" height="40" as="geometry" />
        </mxCell>
        <mxCell id="cD2oe-k7UweuZnAWqWtk-239" value="&lt;span style=&quot;background-color: initial; font-size: 16px;&quot;&gt;&lt;font style=&quot;font-size: 16px;&quot;&gt;0&lt;/font&gt;&lt;/span&gt;" style="shape=partialRectangle;html=1;whiteSpace=wrap;connectable=0;strokeColor=inherit;overflow=hidden;fillColor=#42B4FF;top=1;left=1;bottom=1;right=1;pointerEvents=1;labelBorderColor=none;strokeWidth=3;fillStyle=auto;gradientColor=none;fontColor=#EA772A;fontStyle=1;fontSize=16;align=center;verticalAlign=middle;fontFamily=Helvetica;" vertex="1" parent="cD2oe-k7UweuZnAWqWtk-238">
          <mxGeometry width="40" height="40" as="geometry">
            <mxRectangle width="40" height="40" as="alternateBounds" />
          </mxGeometry>
        </mxCell>
        <mxCell id="cD2oe-k7UweuZnAWqWtk-240" value="" style="shape=partialRectangle;html=1;whiteSpace=wrap;connectable=0;strokeColor=inherit;overflow=hidden;fillColor=#42B4FF;top=0;left=0;bottom=0;right=0;pointerEvents=1;fillStyle=auto;strokeWidth=3;align=center;verticalAlign=middle;fontFamily=Helvetica;fontSize=16;fontColor=#EA772A;fontStyle=1;labelBorderColor=none;gradientColor=none;" vertex="1" parent="cD2oe-k7UweuZnAWqWtk-238">
          <mxGeometry x="40" width="40" height="40" as="geometry">
            <mxRectangle width="40" height="40" as="alternateBounds" />
          </mxGeometry>
        </mxCell>
        <mxCell id="cD2oe-k7UweuZnAWqWtk-241" value="" style="shape=partialRectangle;html=1;whiteSpace=wrap;connectable=0;strokeColor=inherit;overflow=hidden;fillColor=#42B4FF;top=0;left=0;bottom=0;right=0;pointerEvents=1;fillStyle=auto;strokeWidth=3;align=center;verticalAlign=middle;fontFamily=Helvetica;fontSize=16;fontColor=#EA772A;fontStyle=1;labelBorderColor=none;gradientColor=none;" vertex="1" parent="cD2oe-k7UweuZnAWqWtk-238">
          <mxGeometry x="80" width="40" height="40" as="geometry">
            <mxRectangle width="40" height="40" as="alternateBounds" />
          </mxGeometry>
        </mxCell>
        <mxCell id="cD2oe-k7UweuZnAWqWtk-242" value="" style="shape=tableRow;horizontal=0;startSize=0;swimlaneHead=0;swimlaneBody=0;strokeColor=inherit;top=0;left=0;bottom=0;right=0;collapsible=0;dropTarget=0;fillColor=#42B4FF;points=[[0,0.5],[1,0.5]];portConstraint=eastwest;fillStyle=auto;pointerEvents=1;strokeWidth=3;align=center;verticalAlign=middle;fontFamily=Helvetica;fontSize=16;fontColor=#EA772A;fontStyle=1;labelBorderColor=none;gradientColor=none;" vertex="1" parent="cD2oe-k7UweuZnAWqWtk-237">
          <mxGeometry y="40" width="120" height="40" as="geometry" />
        </mxCell>
        <mxCell id="cD2oe-k7UweuZnAWqWtk-243" value="3" style="shape=partialRectangle;html=1;whiteSpace=wrap;connectable=0;strokeColor=inherit;overflow=hidden;fillColor=#42B4FF;top=1;left=1;bottom=1;right=1;pointerEvents=1;fontColor=#EA772A;fontStyle=1;fontSize=16;fillStyle=auto;strokeWidth=3;align=center;verticalAlign=middle;fontFamily=Helvetica;labelBorderColor=none;gradientColor=none;" vertex="1" parent="cD2oe-k7UweuZnAWqWtk-242">
          <mxGeometry width="40" height="40" as="geometry">
            <mxRectangle width="40" height="40" as="alternateBounds" />
          </mxGeometry>
        </mxCell>
        <mxCell id="cD2oe-k7UweuZnAWqWtk-244" value="4" style="shape=partialRectangle;html=1;whiteSpace=wrap;connectable=0;strokeColor=inherit;overflow=hidden;fillColor=#42B4FF;top=1;left=1;bottom=1;right=1;pointerEvents=1;fontColor=#EA772A;fontStyle=1;fontSize=16;fillStyle=auto;strokeWidth=3;align=center;verticalAlign=middle;fontFamily=Helvetica;labelBorderColor=none;gradientColor=none;" vertex="1" parent="cD2oe-k7UweuZnAWqWtk-242">
          <mxGeometry x="40" width="40" height="40" as="geometry">
            <mxRectangle width="40" height="40" as="alternateBounds" />
          </mxGeometry>
        </mxCell>
        <mxCell id="cD2oe-k7UweuZnAWqWtk-245" value="5" style="shape=partialRectangle;html=1;whiteSpace=wrap;connectable=0;strokeColor=inherit;overflow=hidden;fillColor=#42B4FF;top=1;left=1;bottom=1;right=1;pointerEvents=1;fontColor=#EA772A;fontStyle=1;fontSize=16;fillStyle=auto;strokeWidth=3;align=center;verticalAlign=middle;fontFamily=Helvetica;labelBorderColor=none;gradientColor=none;" vertex="1" parent="cD2oe-k7UweuZnAWqWtk-242">
          <mxGeometry x="80" width="40" height="40" as="geometry">
            <mxRectangle width="40" height="40" as="alternateBounds" />
          </mxGeometry>
        </mxCell>
        <mxCell id="cD2oe-k7UweuZnAWqWtk-246" value="" style="shape=tableRow;horizontal=0;startSize=0;swimlaneHead=0;swimlaneBody=0;strokeColor=inherit;top=0;left=0;bottom=0;right=0;collapsible=0;dropTarget=0;fillColor=#42B4FF;points=[[0,0.5],[1,0.5]];portConstraint=eastwest;fillStyle=auto;pointerEvents=1;strokeWidth=3;align=center;verticalAlign=middle;fontFamily=Helvetica;fontSize=16;fontColor=#EA772A;fontStyle=1;labelBorderColor=none;gradientColor=none;" vertex="1" parent="cD2oe-k7UweuZnAWqWtk-237">
          <mxGeometry y="80" width="120" height="40" as="geometry" />
        </mxCell>
        <mxCell id="cD2oe-k7UweuZnAWqWtk-247" value="6" style="shape=partialRectangle;html=1;whiteSpace=wrap;connectable=0;strokeColor=inherit;overflow=hidden;fillColor=#42B4FF;top=1;left=1;bottom=1;right=1;pointerEvents=1;fontColor=#EA772A;fontStyle=1;fontSize=16;fillStyle=auto;strokeWidth=3;align=center;verticalAlign=middle;fontFamily=Helvetica;labelBorderColor=none;gradientColor=none;" vertex="1" parent="cD2oe-k7UweuZnAWqWtk-246">
          <mxGeometry width="40" height="40" as="geometry">
            <mxRectangle width="40" height="40" as="alternateBounds" />
          </mxGeometry>
        </mxCell>
        <mxCell id="cD2oe-k7UweuZnAWqWtk-248" value="7" style="shape=partialRectangle;html=1;whiteSpace=wrap;connectable=0;strokeColor=inherit;overflow=hidden;fillColor=#42B4FF;top=1;left=1;bottom=1;right=1;pointerEvents=1;fontColor=#EA772A;fontStyle=1;fontSize=16;fillStyle=auto;strokeWidth=3;align=center;verticalAlign=middle;fontFamily=Helvetica;labelBorderColor=none;gradientColor=none;" vertex="1" parent="cD2oe-k7UweuZnAWqWtk-246">
          <mxGeometry x="40" width="40" height="40" as="geometry">
            <mxRectangle width="40" height="40" as="alternateBounds" />
          </mxGeometry>
        </mxCell>
        <mxCell id="cD2oe-k7UweuZnAWqWtk-249" value="8" style="shape=partialRectangle;html=1;whiteSpace=wrap;connectable=0;strokeColor=inherit;overflow=hidden;fillColor=#42B4FF;top=1;left=1;bottom=1;right=1;pointerEvents=1;fontColor=#EA772A;fontStyle=1;fontSize=16;fillStyle=auto;strokeWidth=3;align=center;verticalAlign=middle;fontFamily=Helvetica;labelBorderColor=none;gradientColor=none;" vertex="1" parent="cD2oe-k7UweuZnAWqWtk-246">
          <mxGeometry x="80" width="40" height="40" as="geometry">
            <mxRectangle width="40" height="40" as="alternateBounds" />
          </mxGeometry>
        </mxCell>
        <mxCell id="cD2oe-k7UweuZnAWqWtk-250" value="&lt;span style=&quot;background-color: initial; font-size: 16px;&quot;&gt;1&lt;/span&gt;" style="shape=partialRectangle;html=1;whiteSpace=wrap;connectable=0;strokeColor=#EA772A;overflow=hidden;fillColor=#42B4FF;top=1;left=1;bottom=1;right=1;pointerEvents=1;labelBorderColor=none;strokeWidth=3;fillStyle=auto;gradientColor=none;fontColor=#EA772A;fontStyle=1;fontSize=16;align=center;verticalAlign=middle;fontFamily=Helvetica;" vertex="1" parent="1">
          <mxGeometry x="120" y="80" width="40" height="40" as="geometry">
            <mxRectangle width="40" height="40" as="alternateBounds" />
          </mxGeometry>
        </mxCell>
        <mxCell id="cD2oe-k7UweuZnAWqWtk-251" value="&lt;span style=&quot;background-color: initial; font-size: 16px;&quot;&gt;2&lt;/span&gt;" style="shape=partialRectangle;html=1;whiteSpace=wrap;connectable=0;strokeColor=#EA772A;overflow=hidden;fillColor=#42B4FF;top=1;left=1;bottom=1;right=1;pointerEvents=1;labelBorderColor=none;strokeWidth=3;fillStyle=auto;gradientColor=none;fontColor=#EA772A;fontStyle=1;fontSize=16;align=center;verticalAlign=middle;fontFamily=Helvetica;" vertex="1" parent="1">
          <mxGeometry x="160" y="80" width="40" height="40" as="geometry">
            <mxRectangle width="40" height="40" as="alternateBounds" />
          </mxGeometry>
        </mxCell>
        <mxCell id="cD2oe-k7UweuZnAWqWtk-74" value="" style="shape=table;startSize=0;container=1;collapsible=0;childLayout=tableLayout;fillColor=none;strokeColor=#82b366;strokeWidth=6;columnLines=1;rowLines=1;" vertex="1" parent="1">
          <mxGeometry x="80" y="80" width="200" height="200" as="geometry" />
        </mxCell>
        <mxCell id="cD2oe-k7UweuZnAWqWtk-75" value="" style="shape=tableRow;horizontal=0;startSize=0;swimlaneHead=0;swimlaneBody=0;strokeColor=inherit;top=0;left=0;bottom=0;right=0;collapsible=0;dropTarget=0;fillColor=none;points=[[0,0.5],[1,0.5]];portConstraint=eastwest;" vertex="1" parent="cD2oe-k7UweuZnAWqWtk-74">
          <mxGeometry width="200" height="40" as="geometry" />
        </mxCell>
        <mxCell id="cD2oe-k7UweuZnAWqWtk-76" value="" style="shape=partialRectangle;html=1;whiteSpace=wrap;connectable=0;strokeColor=inherit;overflow=hidden;fillColor=#42B4FF;top=1;left=1;bottom=1;right=1;pointerEvents=1;align=center;verticalAlign=middle;fontFamily=Helvetica;fontSize=12;fontColor=default;" vertex="1" parent="cD2oe-k7UweuZnAWqWtk-75">
          <mxGeometry width="40" height="40" as="geometry">
            <mxRectangle width="40" height="40" as="alternateBounds" />
          </mxGeometry>
        </mxCell>
        <mxCell id="cD2oe-k7UweuZnAWqWtk-77" value="" style="shape=partialRectangle;html=1;whiteSpace=wrap;connectable=0;strokeColor=inherit;overflow=hidden;fillColor=#42B4FF;top=1;left=1;bottom=1;right=1;pointerEvents=1;align=center;verticalAlign=middle;fontFamily=Helvetica;fontSize=12;fontColor=default;" vertex="1" parent="cD2oe-k7UweuZnAWqWtk-75">
          <mxGeometry x="40" width="40" height="40" as="geometry">
            <mxRectangle width="40" height="40" as="alternateBounds" />
          </mxGeometry>
        </mxCell>
        <mxCell id="cD2oe-k7UweuZnAWqWtk-78" value="" style="shape=partialRectangle;html=1;whiteSpace=wrap;connectable=0;strokeColor=inherit;overflow=hidden;fillColor=#42B4FF;top=1;left=1;bottom=1;right=1;pointerEvents=1;strokeWidth=1;align=center;verticalAlign=middle;fontFamily=Helvetica;fontSize=12;fontColor=default;" vertex="1" parent="cD2oe-k7UweuZnAWqWtk-75">
          <mxGeometry x="80" width="40" height="40" as="geometry">
            <mxRectangle width="40" height="40" as="alternateBounds" />
          </mxGeometry>
        </mxCell>
        <mxCell id="cD2oe-k7UweuZnAWqWtk-219" style="shape=partialRectangle;html=1;whiteSpace=wrap;connectable=0;strokeColor=inherit;overflow=hidden;fillColor=#42B4FF;top=1;left=1;bottom=1;right=1;pointerEvents=1;" vertex="1" parent="cD2oe-k7UweuZnAWqWtk-75">
          <mxGeometry x="120" width="40" height="40" as="geometry">
            <mxRectangle width="40" height="40" as="alternateBounds" />
          </mxGeometry>
        </mxCell>
        <mxCell id="cD2oe-k7UweuZnAWqWtk-222" style="shape=partialRectangle;html=1;whiteSpace=wrap;connectable=0;strokeColor=inherit;overflow=hidden;fillColor=#42B4FF;top=1;left=1;bottom=1;right=1;pointerEvents=1;" vertex="1" parent="cD2oe-k7UweuZnAWqWtk-75">
          <mxGeometry x="160" width="40" height="40" as="geometry">
            <mxRectangle width="40" height="40" as="alternateBounds" />
          </mxGeometry>
        </mxCell>
        <mxCell id="cD2oe-k7UweuZnAWqWtk-81" value="" style="shape=tableRow;horizontal=0;startSize=0;swimlaneHead=0;swimlaneBody=0;strokeColor=inherit;top=0;left=0;bottom=0;right=0;collapsible=0;dropTarget=0;fillColor=none;points=[[0,0.5],[1,0.5]];portConstraint=eastwest;" vertex="1" parent="cD2oe-k7UweuZnAWqWtk-74">
          <mxGeometry y="40" width="200" height="40" as="geometry" />
        </mxCell>
        <mxCell id="cD2oe-k7UweuZnAWqWtk-82" value="" style="shape=partialRectangle;html=1;whiteSpace=wrap;connectable=0;strokeColor=inherit;overflow=hidden;fillColor=#42B4FF;top=1;left=1;bottom=1;right=1;pointerEvents=1;align=center;verticalAlign=middle;fontFamily=Helvetica;fontSize=12;fontColor=default;" vertex="1" parent="cD2oe-k7UweuZnAWqWtk-81">
          <mxGeometry width="40" height="40" as="geometry">
            <mxRectangle width="40" height="40" as="alternateBounds" />
          </mxGeometry>
        </mxCell>
        <mxCell id="cD2oe-k7UweuZnAWqWtk-83" value="" style="shape=partialRectangle;html=1;whiteSpace=wrap;connectable=0;strokeColor=inherit;overflow=hidden;fillColor=#CCE5FF;top=1;left=1;bottom=1;right=1;pointerEvents=1;align=center;verticalAlign=middle;fontFamily=Helvetica;fontSize=12;fontColor=default;" vertex="1" parent="cD2oe-k7UweuZnAWqWtk-81">
          <mxGeometry x="40" width="40" height="40" as="geometry">
            <mxRectangle width="40" height="40" as="alternateBounds" />
          </mxGeometry>
        </mxCell>
        <mxCell id="cD2oe-k7UweuZnAWqWtk-84" value="" style="shape=partialRectangle;html=1;whiteSpace=wrap;connectable=0;strokeColor=inherit;overflow=hidden;fillColor=#CCE5FF;top=1;left=1;bottom=1;right=1;pointerEvents=1;align=center;verticalAlign=middle;fontFamily=Helvetica;fontSize=12;fontColor=default;" vertex="1" parent="cD2oe-k7UweuZnAWqWtk-81">
          <mxGeometry x="80" width="40" height="40" as="geometry">
            <mxRectangle width="40" height="40" as="alternateBounds" />
          </mxGeometry>
        </mxCell>
        <mxCell id="cD2oe-k7UweuZnAWqWtk-220" style="shape=partialRectangle;html=1;whiteSpace=wrap;connectable=0;strokeColor=inherit;overflow=hidden;fillColor=#CCE5FF;top=1;left=1;bottom=1;right=1;pointerEvents=1;" vertex="1" parent="cD2oe-k7UweuZnAWqWtk-81">
          <mxGeometry x="120" width="40" height="40" as="geometry">
            <mxRectangle width="40" height="40" as="alternateBounds" />
          </mxGeometry>
        </mxCell>
        <mxCell id="cD2oe-k7UweuZnAWqWtk-223" style="shape=partialRectangle;html=1;whiteSpace=wrap;connectable=0;strokeColor=inherit;overflow=hidden;fillColor=#CCE5FF;top=1;left=1;bottom=1;right=1;pointerEvents=1;" vertex="1" parent="cD2oe-k7UweuZnAWqWtk-81">
          <mxGeometry x="160" width="40" height="40" as="geometry">
            <mxRectangle width="40" height="40" as="alternateBounds" />
          </mxGeometry>
        </mxCell>
        <mxCell id="cD2oe-k7UweuZnAWqWtk-87" value="" style="shape=tableRow;horizontal=0;startSize=0;swimlaneHead=0;swimlaneBody=0;strokeColor=inherit;top=0;left=0;bottom=0;right=0;collapsible=0;dropTarget=0;fillColor=none;points=[[0,0.5],[1,0.5]];portConstraint=eastwest;" vertex="1" parent="cD2oe-k7UweuZnAWqWtk-74">
          <mxGeometry y="80" width="200" height="40" as="geometry" />
        </mxCell>
        <mxCell id="cD2oe-k7UweuZnAWqWtk-88" value="" style="shape=partialRectangle;html=1;whiteSpace=wrap;connectable=0;strokeColor=inherit;overflow=hidden;fillColor=#42B4FF;top=1;left=1;bottom=1;right=1;pointerEvents=1;align=center;verticalAlign=middle;fontFamily=Helvetica;fontSize=12;fontColor=default;" vertex="1" parent="cD2oe-k7UweuZnAWqWtk-87">
          <mxGeometry width="40" height="40" as="geometry">
            <mxRectangle width="40" height="40" as="alternateBounds" />
          </mxGeometry>
        </mxCell>
        <mxCell id="cD2oe-k7UweuZnAWqWtk-89" value="" style="shape=partialRectangle;html=1;whiteSpace=wrap;connectable=0;strokeColor=inherit;overflow=hidden;fillColor=#CCE5FF;top=1;left=1;bottom=1;right=1;pointerEvents=1;align=center;verticalAlign=middle;fontFamily=Helvetica;fontSize=12;fontColor=default;" vertex="1" parent="cD2oe-k7UweuZnAWqWtk-87">
          <mxGeometry x="40" width="40" height="40" as="geometry">
            <mxRectangle width="40" height="40" as="alternateBounds" />
          </mxGeometry>
        </mxCell>
        <mxCell id="cD2oe-k7UweuZnAWqWtk-90" value="" style="shape=partialRectangle;html=1;whiteSpace=wrap;connectable=0;strokeColor=inherit;overflow=hidden;fillColor=#66FFFF;top=1;left=1;bottom=1;right=1;pointerEvents=1;align=center;verticalAlign=middle;fontFamily=Helvetica;fontSize=12;fontColor=default;" vertex="1" parent="cD2oe-k7UweuZnAWqWtk-87">
          <mxGeometry x="80" width="40" height="40" as="geometry">
            <mxRectangle width="40" height="40" as="alternateBounds" />
          </mxGeometry>
        </mxCell>
        <mxCell id="cD2oe-k7UweuZnAWqWtk-221" style="shape=partialRectangle;html=1;whiteSpace=wrap;connectable=0;strokeColor=inherit;overflow=hidden;fillColor=#66FFFF;top=1;left=1;bottom=1;right=1;pointerEvents=1;" vertex="1" parent="cD2oe-k7UweuZnAWqWtk-87">
          <mxGeometry x="120" width="40" height="40" as="geometry">
            <mxRectangle width="40" height="40" as="alternateBounds" />
          </mxGeometry>
        </mxCell>
        <mxCell id="cD2oe-k7UweuZnAWqWtk-224" style="shape=partialRectangle;html=1;whiteSpace=wrap;connectable=0;strokeColor=inherit;overflow=hidden;fillColor=#66FFFF;top=1;left=1;bottom=1;right=1;pointerEvents=1;" vertex="1" parent="cD2oe-k7UweuZnAWqWtk-87">
          <mxGeometry x="160" width="40" height="40" as="geometry">
            <mxRectangle width="40" height="40" as="alternateBounds" />
          </mxGeometry>
        </mxCell>
        <mxCell id="cD2oe-k7UweuZnAWqWtk-225" style="shape=tableRow;horizontal=0;startSize=0;swimlaneHead=0;swimlaneBody=0;strokeColor=inherit;top=0;left=0;bottom=0;right=0;collapsible=0;dropTarget=0;fillColor=none;points=[[0,0.5],[1,0.5]];portConstraint=eastwest;" vertex="1" parent="cD2oe-k7UweuZnAWqWtk-74">
          <mxGeometry y="120" width="200" height="40" as="geometry" />
        </mxCell>
        <mxCell id="cD2oe-k7UweuZnAWqWtk-226" style="shape=partialRectangle;html=1;whiteSpace=wrap;connectable=0;strokeColor=inherit;overflow=hidden;fillColor=#42B4FF;top=1;left=1;bottom=1;right=1;pointerEvents=1;" vertex="1" parent="cD2oe-k7UweuZnAWqWtk-225">
          <mxGeometry width="40" height="40" as="geometry">
            <mxRectangle width="40" height="40" as="alternateBounds" />
          </mxGeometry>
        </mxCell>
        <mxCell id="cD2oe-k7UweuZnAWqWtk-227" style="shape=partialRectangle;html=1;whiteSpace=wrap;connectable=0;strokeColor=inherit;overflow=hidden;fillColor=#CCE5FF;top=1;left=1;bottom=1;right=1;pointerEvents=1;" vertex="1" parent="cD2oe-k7UweuZnAWqWtk-225">
          <mxGeometry x="40" width="40" height="40" as="geometry">
            <mxRectangle width="40" height="40" as="alternateBounds" />
          </mxGeometry>
        </mxCell>
        <mxCell id="cD2oe-k7UweuZnAWqWtk-228" style="shape=partialRectangle;html=1;whiteSpace=wrap;connectable=0;strokeColor=inherit;overflow=hidden;fillColor=#66FFFF;top=1;left=1;bottom=1;right=1;pointerEvents=1;" vertex="1" parent="cD2oe-k7UweuZnAWqWtk-225">
          <mxGeometry x="80" width="40" height="40" as="geometry">
            <mxRectangle width="40" height="40" as="alternateBounds" />
          </mxGeometry>
        </mxCell>
        <mxCell id="cD2oe-k7UweuZnAWqWtk-229" style="shape=partialRectangle;html=1;whiteSpace=wrap;connectable=0;strokeColor=inherit;overflow=hidden;fillColor=#66FFFF;top=1;left=1;bottom=1;right=1;pointerEvents=1;" vertex="1" parent="cD2oe-k7UweuZnAWqWtk-225">
          <mxGeometry x="120" width="40" height="40" as="geometry">
            <mxRectangle width="40" height="40" as="alternateBounds" />
          </mxGeometry>
        </mxCell>
        <mxCell id="cD2oe-k7UweuZnAWqWtk-230" style="shape=partialRectangle;html=1;whiteSpace=wrap;connectable=0;strokeColor=inherit;overflow=hidden;fillColor=#66FFFF;top=1;left=1;bottom=1;right=1;pointerEvents=1;" vertex="1" parent="cD2oe-k7UweuZnAWqWtk-225">
          <mxGeometry x="160" width="40" height="40" as="geometry">
            <mxRectangle width="40" height="40" as="alternateBounds" />
          </mxGeometry>
        </mxCell>
        <mxCell id="cD2oe-k7UweuZnAWqWtk-231" style="shape=tableRow;horizontal=0;startSize=0;swimlaneHead=0;swimlaneBody=0;strokeColor=inherit;top=0;left=0;bottom=0;right=0;collapsible=0;dropTarget=0;fillColor=none;points=[[0,0.5],[1,0.5]];portConstraint=eastwest;" vertex="1" parent="cD2oe-k7UweuZnAWqWtk-74">
          <mxGeometry y="160" width="200" height="40" as="geometry" />
        </mxCell>
        <mxCell id="cD2oe-k7UweuZnAWqWtk-232" style="shape=partialRectangle;html=1;whiteSpace=wrap;connectable=0;strokeColor=inherit;overflow=hidden;fillColor=#42B4FF;top=1;left=1;bottom=1;right=1;pointerEvents=1;" vertex="1" parent="cD2oe-k7UweuZnAWqWtk-231">
          <mxGeometry width="40" height="40" as="geometry">
            <mxRectangle width="40" height="40" as="alternateBounds" />
          </mxGeometry>
        </mxCell>
        <mxCell id="cD2oe-k7UweuZnAWqWtk-233" style="shape=partialRectangle;html=1;whiteSpace=wrap;connectable=0;strokeColor=inherit;overflow=hidden;fillColor=#CCE5FF;top=1;left=1;bottom=1;right=1;pointerEvents=1;" vertex="1" parent="cD2oe-k7UweuZnAWqWtk-231">
          <mxGeometry x="40" width="40" height="40" as="geometry">
            <mxRectangle width="40" height="40" as="alternateBounds" />
          </mxGeometry>
        </mxCell>
        <mxCell id="cD2oe-k7UweuZnAWqWtk-234" style="shape=partialRectangle;html=1;whiteSpace=wrap;connectable=0;strokeColor=inherit;overflow=hidden;fillColor=#66FFFF;top=1;left=1;bottom=1;right=1;pointerEvents=1;" vertex="1" parent="cD2oe-k7UweuZnAWqWtk-231">
          <mxGeometry x="80" width="40" height="40" as="geometry">
            <mxRectangle width="40" height="40" as="alternateBounds" />
          </mxGeometry>
        </mxCell>
        <mxCell id="cD2oe-k7UweuZnAWqWtk-235" style="shape=partialRectangle;html=1;whiteSpace=wrap;connectable=0;strokeColor=inherit;overflow=hidden;fillColor=#66FFFF;top=1;left=1;bottom=1;right=1;pointerEvents=1;" vertex="1" parent="cD2oe-k7UweuZnAWqWtk-231">
          <mxGeometry x="120" width="40" height="40" as="geometry">
            <mxRectangle width="40" height="40" as="alternateBounds" />
          </mxGeometry>
        </mxCell>
        <mxCell id="cD2oe-k7UweuZnAWqWtk-236" style="shape=partialRectangle;html=1;whiteSpace=wrap;connectable=0;strokeColor=inherit;overflow=hidden;fillColor=#66FFFF;top=1;left=1;bottom=1;right=1;pointerEvents=1;" vertex="1" parent="cD2oe-k7UweuZnAWqWtk-231">
          <mxGeometry x="160" width="40" height="40" as="geometry">
            <mxRectangle width="40" height="40" as="alternateBounds" />
          </mxGeometry>
        </mxCell>
        <mxCell id="cD2oe-k7UweuZnAWqWtk-302" value="" style="shape=table;startSize=0;container=1;collapsible=0;childLayout=tableLayout;strokeColor=#EA772A;fontColor=#EA772A;fillColor=none;strokeWidth=2;" vertex="1" parent="1">
          <mxGeometry x="80" y="80" width="120" height="120" as="geometry" />
        </mxCell>
        <mxCell id="cD2oe-k7UweuZnAWqWtk-303" value="" style="shape=tableRow;horizontal=0;startSize=0;swimlaneHead=0;swimlaneBody=0;strokeColor=inherit;top=0;left=0;bottom=0;right=0;collapsible=0;dropTarget=0;fillColor=none;points=[[0,0.5],[1,0.5]];portConstraint=eastwest;" vertex="1" parent="cD2oe-k7UweuZnAWqWtk-302">
          <mxGeometry width="120" height="40" as="geometry" />
        </mxCell>
        <mxCell id="cD2oe-k7UweuZnAWqWtk-304" value="0" style="shape=partialRectangle;html=1;whiteSpace=wrap;connectable=0;strokeColor=inherit;overflow=hidden;fillColor=none;top=0;left=0;bottom=0;right=0;pointerEvents=1;fontColor=#F32020;fontSize=16;fontStyle=1" vertex="1" parent="cD2oe-k7UweuZnAWqWtk-303">
          <mxGeometry width="40" height="40" as="geometry">
            <mxRectangle width="40" height="40" as="alternateBounds" />
          </mxGeometry>
        </mxCell>
        <mxCell id="cD2oe-k7UweuZnAWqWtk-305" value="1" style="shape=partialRectangle;html=1;whiteSpace=wrap;connectable=0;strokeColor=inherit;overflow=hidden;fillColor=none;top=0;left=0;bottom=0;right=0;pointerEvents=1;fontColor=#F32020;fontSize=16;fontStyle=1" vertex="1" parent="cD2oe-k7UweuZnAWqWtk-303">
          <mxGeometry x="40" width="40" height="40" as="geometry">
            <mxRectangle width="40" height="40" as="alternateBounds" />
          </mxGeometry>
        </mxCell>
        <mxCell id="cD2oe-k7UweuZnAWqWtk-306" value="2" style="shape=partialRectangle;html=1;whiteSpace=wrap;connectable=0;strokeColor=inherit;overflow=hidden;fillColor=none;top=0;left=0;bottom=0;right=0;pointerEvents=1;fontColor=#F32020;fontSize=16;fontStyle=1" vertex="1" parent="cD2oe-k7UweuZnAWqWtk-303">
          <mxGeometry x="80" width="40" height="40" as="geometry">
            <mxRectangle width="40" height="40" as="alternateBounds" />
          </mxGeometry>
        </mxCell>
        <mxCell id="cD2oe-k7UweuZnAWqWtk-307" value="" style="shape=tableRow;horizontal=0;startSize=0;swimlaneHead=0;swimlaneBody=0;strokeColor=inherit;top=0;left=0;bottom=0;right=0;collapsible=0;dropTarget=0;fillColor=none;points=[[0,0.5],[1,0.5]];portConstraint=eastwest;" vertex="1" parent="cD2oe-k7UweuZnAWqWtk-302">
          <mxGeometry y="40" width="120" height="40" as="geometry" />
        </mxCell>
        <mxCell id="cD2oe-k7UweuZnAWqWtk-308" value="3" style="shape=partialRectangle;html=1;whiteSpace=wrap;connectable=0;strokeColor=inherit;overflow=hidden;fillColor=none;top=0;left=0;bottom=0;right=0;pointerEvents=1;fontColor=#F32020;fontSize=16;fontStyle=1" vertex="1" parent="cD2oe-k7UweuZnAWqWtk-307">
          <mxGeometry width="40" height="40" as="geometry">
            <mxRectangle width="40" height="40" as="alternateBounds" />
          </mxGeometry>
        </mxCell>
        <mxCell id="cD2oe-k7UweuZnAWqWtk-309" value="4" style="shape=partialRectangle;html=1;whiteSpace=wrap;connectable=0;strokeColor=inherit;overflow=hidden;fillColor=none;top=0;left=0;bottom=0;right=0;pointerEvents=1;fontColor=#F32020;fontSize=16;fontStyle=1" vertex="1" parent="cD2oe-k7UweuZnAWqWtk-307">
          <mxGeometry x="40" width="40" height="40" as="geometry">
            <mxRectangle width="40" height="40" as="alternateBounds" />
          </mxGeometry>
        </mxCell>
        <mxCell id="cD2oe-k7UweuZnAWqWtk-310" value="5" style="shape=partialRectangle;html=1;whiteSpace=wrap;connectable=0;strokeColor=inherit;overflow=hidden;fillColor=none;top=0;left=0;bottom=0;right=0;pointerEvents=1;fontColor=#F32020;fontSize=16;fontStyle=1" vertex="1" parent="cD2oe-k7UweuZnAWqWtk-307">
          <mxGeometry x="80" width="40" height="40" as="geometry">
            <mxRectangle width="40" height="40" as="alternateBounds" />
          </mxGeometry>
        </mxCell>
        <mxCell id="cD2oe-k7UweuZnAWqWtk-311" value="" style="shape=tableRow;horizontal=0;startSize=0;swimlaneHead=0;swimlaneBody=0;strokeColor=inherit;top=0;left=0;bottom=0;right=0;collapsible=0;dropTarget=0;fillColor=none;points=[[0,0.5],[1,0.5]];portConstraint=eastwest;" vertex="1" parent="cD2oe-k7UweuZnAWqWtk-302">
          <mxGeometry y="80" width="120" height="40" as="geometry" />
        </mxCell>
        <mxCell id="cD2oe-k7UweuZnAWqWtk-312" value="6" style="shape=partialRectangle;html=1;whiteSpace=wrap;connectable=0;strokeColor=inherit;overflow=hidden;fillColor=none;top=0;left=0;bottom=0;right=0;pointerEvents=1;fontColor=#F32020;fontSize=16;fontStyle=1" vertex="1" parent="cD2oe-k7UweuZnAWqWtk-311">
          <mxGeometry width="40" height="40" as="geometry">
            <mxRectangle width="40" height="40" as="alternateBounds" />
          </mxGeometry>
        </mxCell>
        <mxCell id="cD2oe-k7UweuZnAWqWtk-313" value="7" style="shape=partialRectangle;html=1;whiteSpace=wrap;connectable=0;strokeColor=inherit;overflow=hidden;fillColor=none;top=0;left=0;bottom=0;right=0;pointerEvents=1;fontColor=#F32020;fontSize=16;fontStyle=1" vertex="1" parent="cD2oe-k7UweuZnAWqWtk-311">
          <mxGeometry x="40" width="40" height="40" as="geometry">
            <mxRectangle width="40" height="40" as="alternateBounds" />
          </mxGeometry>
        </mxCell>
        <mxCell id="cD2oe-k7UweuZnAWqWtk-314" value="8" style="shape=partialRectangle;html=1;whiteSpace=wrap;connectable=0;strokeColor=inherit;overflow=hidden;fillColor=none;top=0;left=0;bottom=0;right=0;pointerEvents=1;fontColor=#F32020;fontSize=16;fontStyle=1" vertex="1" parent="cD2oe-k7UweuZnAWqWtk-311">
          <mxGeometry x="80" width="40" height="40" as="geometry">
            <mxRectangle width="40" height="40" as="alternateBounds" />
          </mxGeometry>
        </mxCell>
        <mxCell id="cD2oe-k7UweuZnAWqWtk-252" value="0" style="text;strokeColor=none;align=center;fillColor=none;html=1;verticalAlign=middle;whiteSpace=wrap;rounded=0;" vertex="1" parent="1">
          <mxGeometry x="30" width="10" height="10" as="geometry" />
        </mxCell>
        <mxCell id="cD2oe-k7UweuZnAWqWtk-253" value="0" style="text;strokeColor=none;align=center;fillColor=none;html=1;verticalAlign=middle;whiteSpace=wrap;rounded=0;" vertex="1" parent="1">
          <mxGeometry x="70" width="10" height="10" as="geometry" />
        </mxCell>
        <mxCell id="cD2oe-k7UweuZnAWqWtk-255" value="0" style="text;strokeColor=none;align=center;fillColor=none;html=1;verticalAlign=middle;whiteSpace=wrap;rounded=0;" vertex="1" parent="1">
          <mxGeometry x="110" width="10" height="10" as="geometry" />
        </mxCell>
        <mxCell id="cD2oe-k7UweuZnAWqWtk-256" value="0" style="text;strokeColor=none;align=center;fillColor=none;html=1;verticalAlign=middle;whiteSpace=wrap;rounded=0;" vertex="1" parent="1">
          <mxGeometry x="150" width="10" height="10" as="geometry" />
        </mxCell>
        <mxCell id="cD2oe-k7UweuZnAWqWtk-257" value="0" style="text;strokeColor=none;align=center;fillColor=none;html=1;verticalAlign=middle;whiteSpace=wrap;rounded=0;" vertex="1" parent="1">
          <mxGeometry x="190" width="10" height="10" as="geometry" />
        </mxCell>
        <mxCell id="cD2oe-k7UweuZnAWqWtk-258" value="1" style="text;strokeColor=none;align=center;fillColor=none;html=1;verticalAlign=middle;whiteSpace=wrap;rounded=0;" vertex="1" parent="1">
          <mxGeometry x="230" width="10" height="10" as="geometry" />
        </mxCell>
        <mxCell id="cD2oe-k7UweuZnAWqWtk-259" value="1" style="text;strokeColor=none;align=center;fillColor=none;html=1;verticalAlign=middle;whiteSpace=wrap;rounded=0;" vertex="1" parent="1">
          <mxGeometry x="270" width="10" height="10" as="geometry" />
        </mxCell>
        <mxCell id="cD2oe-k7UweuZnAWqWtk-260" value="1" style="text;strokeColor=none;align=center;fillColor=none;html=1;verticalAlign=middle;whiteSpace=wrap;rounded=0;" vertex="1" parent="1">
          <mxGeometry x="30" y="40" width="10" height="10" as="geometry" />
        </mxCell>
        <mxCell id="cD2oe-k7UweuZnAWqWtk-261" value="1" style="text;strokeColor=none;align=center;fillColor=none;html=1;verticalAlign=middle;whiteSpace=wrap;rounded=0;" vertex="1" parent="1">
          <mxGeometry x="70" y="40" width="10" height="10" as="geometry" />
        </mxCell>
        <mxCell id="cD2oe-k7UweuZnAWqWtk-262" value="1" style="text;strokeColor=none;align=center;fillColor=none;html=1;verticalAlign=middle;whiteSpace=wrap;rounded=0;" vertex="1" parent="1">
          <mxGeometry x="110" y="40" width="10" height="10" as="geometry" />
        </mxCell>
        <mxCell id="cD2oe-k7UweuZnAWqWtk-263" value="2" style="text;strokeColor=none;align=center;fillColor=none;html=1;verticalAlign=middle;whiteSpace=wrap;rounded=0;" vertex="1" parent="1">
          <mxGeometry x="150" y="40" width="10" height="10" as="geometry" />
        </mxCell>
        <mxCell id="cD2oe-k7UweuZnAWqWtk-264" value="2" style="text;strokeColor=none;align=center;fillColor=none;html=1;verticalAlign=middle;whiteSpace=wrap;rounded=0;" vertex="1" parent="1">
          <mxGeometry x="190" y="40" width="10" height="10" as="geometry" />
        </mxCell>
        <mxCell id="cD2oe-k7UweuZnAWqWtk-265" value="2" style="text;strokeColor=none;align=center;fillColor=none;html=1;verticalAlign=middle;whiteSpace=wrap;rounded=0;" vertex="1" parent="1">
          <mxGeometry x="230" y="40" width="10" height="10" as="geometry" />
        </mxCell>
        <mxCell id="cD2oe-k7UweuZnAWqWtk-266" value="2" style="text;strokeColor=none;align=center;fillColor=none;html=1;verticalAlign=middle;whiteSpace=wrap;rounded=0;" vertex="1" parent="1">
          <mxGeometry x="270" y="40" width="10" height="10" as="geometry" />
        </mxCell>
        <mxCell id="cD2oe-k7UweuZnAWqWtk-267" value="2" style="text;strokeColor=none;align=center;fillColor=none;html=1;verticalAlign=middle;whiteSpace=wrap;rounded=0;" vertex="1" parent="1">
          <mxGeometry x="30" y="80" width="10" height="10" as="geometry" />
        </mxCell>
        <mxCell id="cD2oe-k7UweuZnAWqWtk-268" value="3" style="text;strokeColor=none;align=center;fillColor=none;html=1;verticalAlign=middle;whiteSpace=wrap;rounded=0;" vertex="1" parent="1">
          <mxGeometry x="70" y="80" width="10" height="10" as="geometry" />
        </mxCell>
        <mxCell id="cD2oe-k7UweuZnAWqWtk-269" value="3" style="text;strokeColor=none;align=center;fillColor=none;html=1;verticalAlign=middle;whiteSpace=wrap;rounded=0;" vertex="1" parent="1">
          <mxGeometry x="110" y="80" width="10" height="10" as="geometry" />
        </mxCell>
        <mxCell id="cD2oe-k7UweuZnAWqWtk-270" value="3" style="text;strokeColor=none;align=center;fillColor=none;html=1;verticalAlign=middle;whiteSpace=wrap;rounded=0;" vertex="1" parent="1">
          <mxGeometry x="150" y="80" width="10" height="10" as="geometry" />
        </mxCell>
        <mxCell id="cD2oe-k7UweuZnAWqWtk-271" value="3" style="text;strokeColor=none;align=center;fillColor=none;html=1;verticalAlign=middle;whiteSpace=wrap;rounded=0;" vertex="1" parent="1">
          <mxGeometry x="190" y="80" width="10" height="10" as="geometry" />
        </mxCell>
        <mxCell id="cD2oe-k7UweuZnAWqWtk-272" value="3" style="text;strokeColor=none;align=center;fillColor=none;html=1;verticalAlign=middle;whiteSpace=wrap;rounded=0;" vertex="1" parent="1">
          <mxGeometry x="230" y="80" width="10" height="10" as="geometry" />
        </mxCell>
        <mxCell id="cD2oe-k7UweuZnAWqWtk-273" value="4" style="text;strokeColor=none;align=center;fillColor=none;html=1;verticalAlign=middle;whiteSpace=wrap;rounded=0;" vertex="1" parent="1">
          <mxGeometry x="270" y="80" width="10" height="10" as="geometry" />
        </mxCell>
        <mxCell id="cD2oe-k7UweuZnAWqWtk-274" value="4" style="text;strokeColor=none;align=center;fillColor=none;html=1;verticalAlign=middle;whiteSpace=wrap;rounded=0;" vertex="1" parent="1">
          <mxGeometry x="30" y="120" width="10" height="10" as="geometry" />
        </mxCell>
        <mxCell id="cD2oe-k7UweuZnAWqWtk-275" value="4" style="text;strokeColor=none;align=center;fillColor=none;html=1;verticalAlign=middle;whiteSpace=wrap;rounded=0;" vertex="1" parent="1">
          <mxGeometry x="70" y="120" width="10" height="10" as="geometry" />
        </mxCell>
        <mxCell id="cD2oe-k7UweuZnAWqWtk-276" value="4" style="text;strokeColor=none;align=center;fillColor=none;html=1;verticalAlign=middle;whiteSpace=wrap;rounded=0;" vertex="1" parent="1">
          <mxGeometry x="110" y="120" width="10" height="10" as="geometry" />
        </mxCell>
        <mxCell id="cD2oe-k7UweuZnAWqWtk-277" value="4" style="text;strokeColor=none;align=center;fillColor=none;html=1;verticalAlign=middle;whiteSpace=wrap;rounded=0;" vertex="1" parent="1">
          <mxGeometry x="150" y="120" width="10" height="10" as="geometry" />
        </mxCell>
        <mxCell id="cD2oe-k7UweuZnAWqWtk-278" value="5" style="text;strokeColor=none;align=center;fillColor=none;html=1;verticalAlign=middle;whiteSpace=wrap;rounded=0;" vertex="1" parent="1">
          <mxGeometry x="190" y="120" width="10" height="10" as="geometry" />
        </mxCell>
        <mxCell id="cD2oe-k7UweuZnAWqWtk-279" value="5" style="text;strokeColor=none;align=center;fillColor=none;html=1;verticalAlign=middle;whiteSpace=wrap;rounded=0;" vertex="1" parent="1">
          <mxGeometry x="230" y="120" width="10" height="10" as="geometry" />
        </mxCell>
        <mxCell id="cD2oe-k7UweuZnAWqWtk-280" value="5" style="text;strokeColor=none;align=center;fillColor=none;html=1;verticalAlign=middle;whiteSpace=wrap;rounded=0;" vertex="1" parent="1">
          <mxGeometry x="270" y="120" width="10" height="10" as="geometry" />
        </mxCell>
        <mxCell id="cD2oe-k7UweuZnAWqWtk-281" value="5" style="text;strokeColor=none;align=center;fillColor=none;html=1;verticalAlign=middle;whiteSpace=wrap;rounded=0;" vertex="1" parent="1">
          <mxGeometry x="30" y="160" width="10" height="10" as="geometry" />
        </mxCell>
        <mxCell id="cD2oe-k7UweuZnAWqWtk-282" value="5" style="text;strokeColor=none;align=center;fillColor=none;html=1;verticalAlign=middle;whiteSpace=wrap;rounded=0;" vertex="1" parent="1">
          <mxGeometry x="70" y="160" width="10" height="10" as="geometry" />
        </mxCell>
        <mxCell id="cD2oe-k7UweuZnAWqWtk-283" value="6" style="text;strokeColor=none;align=center;fillColor=none;html=1;verticalAlign=middle;whiteSpace=wrap;rounded=0;" vertex="1" parent="1">
          <mxGeometry x="110" y="160" width="10" height="10" as="geometry" />
        </mxCell>
        <mxCell id="cD2oe-k7UweuZnAWqWtk-284" value="6" style="text;strokeColor=none;align=center;fillColor=none;html=1;verticalAlign=middle;whiteSpace=wrap;rounded=0;" vertex="1" parent="1">
          <mxGeometry x="150" y="160" width="10" height="10" as="geometry" />
        </mxCell>
        <mxCell id="cD2oe-k7UweuZnAWqWtk-285" value="6" style="text;strokeColor=none;align=center;fillColor=none;html=1;verticalAlign=middle;whiteSpace=wrap;rounded=0;" vertex="1" parent="1">
          <mxGeometry x="190" y="160" width="10" height="10" as="geometry" />
        </mxCell>
        <mxCell id="cD2oe-k7UweuZnAWqWtk-286" value="6" style="text;strokeColor=none;align=center;fillColor=none;html=1;verticalAlign=middle;whiteSpace=wrap;rounded=0;" vertex="1" parent="1">
          <mxGeometry x="230" y="160" width="10" height="10" as="geometry" />
        </mxCell>
        <mxCell id="cD2oe-k7UweuZnAWqWtk-287" value="6" style="text;strokeColor=none;align=center;fillColor=none;html=1;verticalAlign=middle;whiteSpace=wrap;rounded=0;" vertex="1" parent="1">
          <mxGeometry x="270" y="160" width="10" height="10" as="geometry" />
        </mxCell>
        <mxCell id="cD2oe-k7UweuZnAWqWtk-288" value="7" style="text;strokeColor=none;align=center;fillColor=none;html=1;verticalAlign=middle;whiteSpace=wrap;rounded=0;" vertex="1" parent="1">
          <mxGeometry x="30" y="200" width="10" height="10" as="geometry" />
        </mxCell>
        <mxCell id="cD2oe-k7UweuZnAWqWtk-289" value="7" style="text;strokeColor=none;align=center;fillColor=none;html=1;verticalAlign=middle;whiteSpace=wrap;rounded=0;" vertex="1" parent="1">
          <mxGeometry x="70" y="200" width="10" height="10" as="geometry" />
        </mxCell>
        <mxCell id="cD2oe-k7UweuZnAWqWtk-290" value="7" style="text;strokeColor=none;align=center;fillColor=none;html=1;verticalAlign=middle;whiteSpace=wrap;rounded=0;" vertex="1" parent="1">
          <mxGeometry x="110" y="200" width="10" height="10" as="geometry" />
        </mxCell>
        <mxCell id="cD2oe-k7UweuZnAWqWtk-291" value="7" style="text;strokeColor=none;align=center;fillColor=none;html=1;verticalAlign=middle;whiteSpace=wrap;rounded=0;" vertex="1" parent="1">
          <mxGeometry x="150" y="200" width="10" height="10" as="geometry" />
        </mxCell>
        <mxCell id="cD2oe-k7UweuZnAWqWtk-292" value="7" style="text;strokeColor=none;align=center;fillColor=none;html=1;verticalAlign=middle;whiteSpace=wrap;rounded=0;" vertex="1" parent="1">
          <mxGeometry x="190" y="200" width="10" height="10" as="geometry" />
        </mxCell>
        <mxCell id="cD2oe-k7UweuZnAWqWtk-293" value="8" style="text;strokeColor=none;align=center;fillColor=none;html=1;verticalAlign=middle;whiteSpace=wrap;rounded=0;" vertex="1" parent="1">
          <mxGeometry x="230" y="200" width="10" height="10" as="geometry" />
        </mxCell>
        <mxCell id="cD2oe-k7UweuZnAWqWtk-294" value="8" style="text;strokeColor=none;align=center;fillColor=none;html=1;verticalAlign=middle;whiteSpace=wrap;rounded=0;" vertex="1" parent="1">
          <mxGeometry x="270" y="200" width="10" height="10" as="geometry" />
        </mxCell>
        <mxCell id="cD2oe-k7UweuZnAWqWtk-295" value="8" style="text;strokeColor=none;align=center;fillColor=none;html=1;verticalAlign=middle;whiteSpace=wrap;rounded=0;" vertex="1" parent="1">
          <mxGeometry x="30" y="240" width="10" height="10" as="geometry" />
        </mxCell>
        <mxCell id="cD2oe-k7UweuZnAWqWtk-296" value="8" style="text;strokeColor=none;align=center;fillColor=none;html=1;verticalAlign=middle;whiteSpace=wrap;rounded=0;" vertex="1" parent="1">
          <mxGeometry x="70" y="240" width="10" height="10" as="geometry" />
        </mxCell>
        <mxCell id="cD2oe-k7UweuZnAWqWtk-297" value="8" style="text;strokeColor=none;align=center;fillColor=none;html=1;verticalAlign=middle;whiteSpace=wrap;rounded=0;" vertex="1" parent="1">
          <mxGeometry x="110" y="240" width="10" height="10" as="geometry" />
        </mxCell>
        <mxCell id="cD2oe-k7UweuZnAWqWtk-298" value="8" style="text;strokeColor=none;align=center;fillColor=none;html=1;verticalAlign=middle;whiteSpace=wrap;rounded=0;" vertex="1" parent="1">
          <mxGeometry x="150" y="240" width="10" height="10" as="geometry" />
        </mxCell>
        <mxCell id="cD2oe-k7UweuZnAWqWtk-299" value="8" style="text;strokeColor=none;align=center;fillColor=none;html=1;verticalAlign=middle;whiteSpace=wrap;rounded=0;" vertex="1" parent="1">
          <mxGeometry x="190" y="240" width="10" height="10" as="geometry" />
        </mxCell>
        <mxCell id="cD2oe-k7UweuZnAWqWtk-300" value="8" style="text;strokeColor=none;align=center;fillColor=none;html=1;verticalAlign=middle;whiteSpace=wrap;rounded=0;" vertex="1" parent="1">
          <mxGeometry x="230" y="240" width="10" height="10" as="geometry" />
        </mxCell>
        <mxCell id="cD2oe-k7UweuZnAWqWtk-301" value="8" style="text;strokeColor=none;align=center;fillColor=none;html=1;verticalAlign=middle;whiteSpace=wrap;rounded=0;" vertex="1" parent="1">
          <mxGeometry x="270" y="240" width="10" height="10" as="geometry" />
        </mxCell>
        <mxCell id="cD2oe-k7UweuZnAWqWtk-315" value="" style="shape=table;startSize=0;container=1;collapsible=0;childLayout=tableLayout;fillColor=#EA772A;" vertex="1" parent="1">
          <mxGeometry y="-50" width="10" height="10" as="geometry" />
        </mxCell>
        <mxCell id="cD2oe-k7UweuZnAWqWtk-316" value="" style="shape=tableRow;horizontal=0;startSize=0;swimlaneHead=0;swimlaneBody=0;strokeColor=inherit;top=0;left=0;bottom=0;right=0;collapsible=0;dropTarget=0;fillColor=none;points=[[0,0.5],[1,0.5]];portConstraint=eastwest;" vertex="1" parent="cD2oe-k7UweuZnAWqWtk-315">
          <mxGeometry width="10" height="10" as="geometry" />
        </mxCell>
        <mxCell id="cD2oe-k7UweuZnAWqWtk-317" value="" style="shape=partialRectangle;html=1;whiteSpace=wrap;connectable=0;strokeColor=inherit;overflow=hidden;fillColor=none;top=0;left=0;bottom=0;right=0;pointerEvents=1;" vertex="1" parent="cD2oe-k7UweuZnAWqWtk-316">
          <mxGeometry width="10" height="10" as="geometry">
            <mxRectangle width="10" height="10" as="alternateBounds" />
          </mxGeometry>
        </mxCell>
        <mxCell id="cD2oe-k7UweuZnAWqWtk-318" value="Thread Block" style="text;strokeColor=none;align=left;fillColor=none;html=1;verticalAlign=middle;whiteSpace=wrap;rounded=0;" vertex="1" parent="1">
          <mxGeometry x="20" y="-50" width="150" height="10" as="geometry" />
        </mxCell>
        <mxCell id="cD2oe-k7UweuZnAWqWtk-319" value="Border mirroring" style="text;strokeColor=none;align=left;fillColor=none;html=1;verticalAlign=middle;whiteSpace=wrap;rounded=0;" vertex="1" parent="1">
          <mxGeometry x="20" y="-70" width="90" height="10" as="geometry" />
        </mxCell>
        <mxCell id="cD2oe-k7UweuZnAWqWtk-320" value="" style="shape=table;startSize=0;container=1;collapsible=0;childLayout=tableLayout;fillColor=#FFC7F2;" vertex="1" parent="1">
          <mxGeometry y="-70" width="10" height="10" as="geometry" />
        </mxCell>
        <mxCell id="cD2oe-k7UweuZnAWqWtk-321" value="" style="shape=tableRow;horizontal=0;startSize=0;swimlaneHead=0;swimlaneBody=0;strokeColor=inherit;top=0;left=0;bottom=0;right=0;collapsible=0;dropTarget=0;fillColor=none;points=[[0,0.5],[1,0.5]];portConstraint=eastwest;" vertex="1" parent="cD2oe-k7UweuZnAWqWtk-320">
          <mxGeometry width="10" height="10" as="geometry" />
        </mxCell>
        <mxCell id="cD2oe-k7UweuZnAWqWtk-322" value="" style="shape=partialRectangle;html=1;whiteSpace=wrap;connectable=0;strokeColor=inherit;overflow=hidden;fillColor=none;top=0;left=0;bottom=0;right=0;pointerEvents=1;" vertex="1" parent="cD2oe-k7UweuZnAWqWtk-321">
          <mxGeometry width="10" height="10" as="geometry">
            <mxRectangle width="10" height="10" as="alternateBounds" />
          </mxGeometry>
        </mxCell>
        <mxCell id="cD2oe-k7UweuZnAWqWtk-327" value="" style="shape=table;startSize=0;container=1;collapsible=0;childLayout=tableLayout;fillColor=#82B366;" vertex="1" parent="1">
          <mxGeometry y="-90" width="10" height="10" as="geometry" />
        </mxCell>
        <mxCell id="cD2oe-k7UweuZnAWqWtk-328" value="" style="shape=tableRow;horizontal=0;startSize=0;swimlaneHead=0;swimlaneBody=0;strokeColor=inherit;top=0;left=0;bottom=0;right=0;collapsible=0;dropTarget=0;fillColor=none;points=[[0,0.5],[1,0.5]];portConstraint=eastwest;" vertex="1" parent="cD2oe-k7UweuZnAWqWtk-327">
          <mxGeometry width="10" height="10" as="geometry" />
        </mxCell>
        <mxCell id="cD2oe-k7UweuZnAWqWtk-329" value="" style="shape=partialRectangle;html=1;whiteSpace=wrap;connectable=0;strokeColor=inherit;overflow=hidden;fillColor=none;top=0;left=0;bottom=0;right=0;pointerEvents=1;" vertex="1" parent="cD2oe-k7UweuZnAWqWtk-328">
          <mxGeometry width="10" height="10" as="geometry">
            <mxRectangle width="10" height="10" as="alternateBounds" />
          </mxGeometry>
        </mxCell>
        <mxCell id="cD2oe-k7UweuZnAWqWtk-330" value="Image" style="text;strokeColor=none;align=left;fillColor=none;html=1;verticalAlign=middle;whiteSpace=wrap;rounded=0;" vertex="1" parent="1">
          <mxGeometry x="20" y="-90" width="90" height="10" as="geometry" />
        </mxCell>
        <mxCell id="cD2oe-k7UweuZnAWqWtk-335" value="Thread Block index" style="text;strokeColor=none;align=left;fillColor=none;html=1;verticalAlign=middle;whiteSpace=wrap;rounded=0;" vertex="1" parent="1">
          <mxGeometry x="20" y="-30" width="110" height="10" as="geometry" />
        </mxCell>
        <mxCell id="cD2oe-k7UweuZnAWqWtk-336" value="" style="shape=table;startSize=0;container=1;collapsible=0;childLayout=tableLayout;fillColor=#F32020;" vertex="1" parent="1">
          <mxGeometry y="-30" width="10" height="10" as="geometry" />
        </mxCell>
        <mxCell id="cD2oe-k7UweuZnAWqWtk-337" value="" style="shape=tableRow;horizontal=0;startSize=0;swimlaneHead=0;swimlaneBody=0;strokeColor=inherit;top=0;left=0;bottom=0;right=0;collapsible=0;dropTarget=0;fillColor=none;points=[[0,0.5],[1,0.5]];portConstraint=eastwest;" vertex="1" parent="cD2oe-k7UweuZnAWqWtk-336">
          <mxGeometry width="10" height="10" as="geometry" />
        </mxCell>
        <mxCell id="cD2oe-k7UweuZnAWqWtk-338" value="" style="shape=partialRectangle;html=1;whiteSpace=wrap;connectable=0;strokeColor=inherit;overflow=hidden;fillColor=none;top=0;left=0;bottom=0;right=0;pointerEvents=1;" vertex="1" parent="cD2oe-k7UweuZnAWqWtk-337">
          <mxGeometry width="10" height="10" as="geometry">
            <mxRectangle width="10" height="10" as="alternateBounds" />
          </mxGeometry>
        </mxCell>
      </root>
    </mxGraphModel>
  </diagram>
</mxfile>
